<svg width="77" height="77" viewBox="0 0 77 77" fill="none" xmlns="http://www.w3.org/2000/svg">
<path fill-rule="evenodd" clip-rule="evenodd" d="M38.5 3.99982C57.5538 3.99982 72.9999 19.4462 72.9999 38.4999C72.9999 57.5536 57.5538 73 38.5 73C19.4462 73 3.99996 57.5536 3.99996 38.4999C3.99996 19.4462 19.4462 3.99982 38.5 3.99982Z" fill="white"/>
<path d="M74.9999 38.4999C74.9999 18.3416 58.6584 1.99982 38.5 1.99982C18.3416 1.99982 1.99996 18.3416 1.99996 38.4999C1.99996 58.6582 18.3416 75 38.5 75C58.6584 75 74.9999 58.6582 74.9999 38.4999Z" stroke="white" stroke-opacity="0.31" stroke-width="4"/>
<path fill-rule="evenodd" clip-rule="evenodd" d="M53.7544 37.9875L52.4645 39.2778C50.9817 40.7609 49.0101 41.5779 46.9128 41.5779C45.9314 41.5779 44.9535 41.3919 44.0436 41.0362L31.5503 53.532C30.6042 54.4785 29.3465 54.9993 28.0086 54.9995C26.6708 54.9995 25.4131 54.4785 24.4669 53.532C23.5209 52.5858 23 51.3279 23 49.9899C23.0001 48.6513 23.5211 47.3932 24.4671 46.447L36.9593 33.9526C35.8195 31.0628 36.4815 27.7657 38.7183 25.528L40.0084 24.2377C41.4516 22.7942 43.4076 21.9993 45.5163 21.9991C46.6514 21.9993 47.7951 22.2404 48.8241 22.6953C49.1443 22.8369 49.374 23.1275 49.4381 23.4724C49.5021 23.8165 49.392 24.1707 49.144 24.4176L45.2299 28.3214C44.6379 28.9138 44.311 29.7027 44.311 30.542C44.3111 31.381 44.6379 32.1699 45.2311 32.7635C45.8243 33.3569 46.6131 33.6837 47.4519 33.6837C48.2909 33.6835 49.0798 33.3569 49.6729 32.7635L53.5906 28.8601C53.8383 28.6134 54.1912 28.5044 54.5352 28.5691C54.8788 28.6334 55.1684 28.8629 55.3098 29.1827C56.6394 32.1888 56.0144 35.7269 53.7544 37.9875ZM53.8222 31.6261L51.1722 34.266C50.1797 35.259 48.858 35.8064 47.4521 35.8064C46.0461 35.8064 44.7244 35.2592 43.7303 34.2644C42.7362 33.2703 42.1888 31.9483 42.1886 30.5422C42.1886 29.1356 42.7361 27.8137 43.7301 26.8193L46.3733 24.1832C46.0894 24.1425 45.8026 24.122 45.5162 24.122C43.9746 24.122 42.5514 24.6962 41.5091 25.739L40.2191 27.0295C38.4445 28.8042 38.0202 31.485 39.1744 33.7121C39.4076 34.1616 39.2755 34.6678 38.8948 35.0299L25.9677 47.9483C25.4226 48.4936 25.1223 49.2184 25.1223 49.9899C25.1223 50.7606 25.4226 51.4856 25.9675 52.0309C26.5128 52.5761 27.2376 52.8765 28.0085 52.8765C28.7794 52.8765 29.5043 52.5761 30.0494 52.0309L42.9635 39.099C43.3133 38.7279 43.8313 38.5869 44.2809 38.8197C45.0896 39.2391 45.9957 39.4548 46.9127 39.4549C48.4429 39.4549 49.8816 38.8588 50.9637 37.7767L52.2537 36.4864C53.5164 35.2231 54.0739 33.4032 53.8222 31.6261ZM28.2545 51.3995C27.8122 51.3995 27.3965 51.2275 27.0838 50.9149C26.7712 50.6019 26.599 50.1859 26.599 49.7438C26.599 49.3014 26.7713 48.8855 27.0838 48.5727C27.3965 48.2601 27.8122 48.0878 28.2545 48.0878C28.6967 48.0878 29.1123 48.2599 29.4251 48.5727C29.7377 48.8855 29.9099 49.3014 29.9099 49.7438C29.9099 50.1859 29.7378 50.6019 29.4251 50.9149C29.1123 51.2275 28.6967 51.3992 28.2545 51.3995Z" fill="#FF1329"/>
</svg>
