<svg width="77" height="77" viewBox="0 0 77 77" fill="none" xmlns="http://www.w3.org/2000/svg">
<path fill-rule="evenodd" clip-rule="evenodd" d="M38.4999 3.99982C57.5538 3.99982 73 19.4462 73 38.4999C73 57.5536 57.5538 73 38.4999 73C19.4462 73 3.99996 57.5536 3.99996 38.4999C3.99996 19.4462 19.4462 3.99982 38.4999 3.99982Z" fill="white"/>
<path d="M75 38.4999C75 18.3416 58.6583 1.99982 38.4999 1.99982C18.3416 1.99982 1.99996 18.3416 1.99996 38.4999C1.99996 58.6582 18.3416 75 38.4999 75C58.6583 75 75 58.6582 75 38.4999Z" stroke="white" stroke-opacity="0.31" stroke-width="4"/>
<path fill-rule="evenodd" clip-rule="evenodd" d="M50.3961 56.9445C50.2919 56.9817 50.1853 56.9994 50.0805 56.9994C49.7033 56.9994 49.3492 56.7711 49.2128 56.4034L47.9838 53.0942L46.1585 52.001C45.9799 51.8942 45.8437 51.7309 45.7721 51.5383L41.8476 40.9695H39.4232V42.4542C39.4232 42.954 39.0099 43.3592 38.5 43.3592C37.9901 43.3592 37.5767 42.954 37.5767 42.4542V40.9695H35.1524L31.2278 51.5383C31.1563 51.7309 31.0201 51.8942 30.8415 52.001L29.0162 53.0942L27.7872 56.4034C27.6507 56.7711 27.2966 56.9994 26.9195 56.9994C26.8147 56.9994 26.7081 56.9817 26.6039 56.9445C26.1246 56.7737 25.8775 56.2543 26.052 55.7848L27.2809 52.4751L26.5994 50.4877C26.5328 50.2933 26.5354 50.0827 26.607 49.8897L29.9195 40.9695H27.0369C26.5269 40.9695 26.1135 40.5641 26.1135 40.0645C26.1135 39.565 26.5269 39.1596 27.0369 39.1596H30.5915L33.559 31.1684C32.9088 30.2314 32.5282 29.1012 32.5282 27.8852C32.5282 25.41 34.1048 23.2902 36.3247 22.4356V17.9045C36.3247 17.4047 36.738 16.9995 37.2479 16.9995H39.7518C40.2617 16.9995 40.675 17.4047 40.675 17.9045V22.4356C42.8949 23.2902 44.4714 25.41 44.4714 27.8852C44.4714 29.1012 44.0908 30.2314 43.4408 31.1684L46.4082 39.1596H49.963C50.4729 39.1596 50.8862 39.565 50.8862 40.0647C50.8862 40.5643 50.4729 40.9697 49.963 40.9697H47.0804L50.3928 49.8899C50.4644 50.0827 50.4671 50.2933 50.4004 50.4877L49.7189 52.4751L50.9479 55.7848C51.1223 56.2545 50.8752 56.7737 50.3961 56.9445ZM37.5766 39.1596V37.6751C37.5766 37.1751 37.99 36.7701 38.4999 36.7701C39.0098 36.7701 39.4232 37.1751 39.4232 37.6751V39.1596H41.1755L39.1492 33.7032C38.9358 33.7258 38.7194 33.738 38.4999 33.738C38.2805 33.738 38.0639 33.7258 37.8505 33.7032L35.8243 39.1596H37.5766ZM28.4528 50.2113L28.7655 51.1233L29.6031 50.6221L33.1872 40.9695H31.8845L28.4528 50.2113ZM32.5566 39.1596H33.8593L36.0625 33.2262C35.6813 33.0585 35.3211 32.8533 34.9871 32.6144L32.5566 39.1596ZM38.8286 18.8095H38.1713H38.1712V22.041C38.28 22.0354 38.3895 22.0322 38.4999 22.0322C38.6102 22.0322 38.7197 22.0354 38.8286 22.041V18.8095ZM38.4999 23.8419C36.2254 23.8419 34.3749 25.6557 34.3749 27.8852C34.3749 30.1143 36.2254 31.9283 38.4999 31.9283C40.7744 31.9283 42.6248 30.1143 42.6248 27.8852C42.6248 25.6557 40.7744 23.8419 38.4999 23.8419ZM42.0127 32.6144C41.6787 32.8533 41.3185 33.0585 40.9373 33.2262L43.1406 39.1596H44.4432L42.0127 32.6144ZM45.1154 40.9695H43.8126L47.3968 50.6221L48.2345 51.1233L48.5472 50.2113L45.1154 40.9695ZM38.4999 30.1025C37.2527 30.1025 36.2379 29.1076 36.2379 27.8852C36.2379 26.6628 37.2527 25.6679 38.4999 25.6679C39.7472 25.6679 40.7619 26.6628 40.7619 27.8852C40.7619 29.1076 39.7472 30.1025 38.4999 30.1025ZM38.4999 27.478C38.2709 27.478 38.0844 27.6607 38.0844 27.8852C38.0844 28.1094 38.2709 28.2924 38.4999 28.2924C38.729 28.2924 38.9154 28.1094 38.9154 27.8852C38.9154 27.6607 38.729 27.478 38.4999 27.478Z" fill="#FF1329"/>
</svg>
