<svg width="199" height="41" viewBox="0 0 199 41" fill="none" xmlns="http://www.w3.org/2000/svg">
<mask id="mask0" mask-type="alpha" maskUnits="userSpaceOnUse" x="0" y="0" width="199" height="41">
<rect width="199" height="41" fill="#C4C4C4"/>
</mask>
<g mask="url(#mask0)">
<path d="M51.2441 40.0929C54.3649 40.0929 56.1148 38.8971 57.6314 37.2347L55.0357 34.6098C53.9565 35.6306 52.9357 36.2722 51.4483 36.2722C49.0275 36.2722 47.4817 34.3473 47.4817 31.9557C47.4817 29.5933 49.0567 27.6392 51.2733 27.6392C53.0232 27.6392 53.9565 28.2808 54.919 29.1849L57.5148 26.56C56.0565 24.9267 54.2482 23.8184 51.3025 23.8184C46.5193 23.8184 43.1069 27.4933 43.1069 31.9557C43.1069 36.4764 46.5484 40.0929 51.2441 40.0929ZM74.4827 24.1101H70.0496V30.1182H64.5956V24.1101H60.1624V39.7429H64.5956V33.764H70.0496V39.7429H74.4827V24.1101ZM82.5162 40.0346C84.6745 40.0346 86.162 39.2471 87.2411 38.0513V39.7429H91.5284V30.6724C91.5284 28.5725 91.0035 26.8517 89.8368 25.6851C88.7285 24.5768 86.9786 23.9351 84.5578 23.9351C81.9038 23.9351 80.2122 24.4309 78.4914 25.1892L79.5997 28.5725C81.0288 28.0475 82.2246 27.7267 83.9162 27.7267C86.1328 27.7267 87.2703 28.7475 87.2703 30.5849V30.8474C86.162 30.4682 85.0245 30.2057 83.4495 30.2057C79.7455 30.2057 77.1498 31.7807 77.1498 35.1931C77.1498 38.343 79.5705 40.0346 82.5162 40.0346ZM83.8579 36.9722C82.4287 36.9722 81.4371 36.2722 81.4371 35.0764C81.4371 33.6181 82.6037 32.8598 84.4995 32.8598C85.5786 32.8598 86.5703 33.0931 87.3286 33.4431V34.2306C87.3286 35.8347 85.9286 36.9722 83.8579 36.9722ZM102.766 36.2722C100.578 36.2722 98.9449 34.4639 98.9449 32.2473C98.9449 29.9724 100.462 28.1641 102.707 28.1641C104.895 28.1641 106.528 30.0016 106.528 32.2473C106.528 34.4931 105.041 36.2722 102.766 36.2722ZM102.707 40.0929C107.461 40.0929 110.903 36.5055 110.903 32.189C110.903 27.9016 107.461 24.6934 103.495 24.6934C100.287 24.6934 98.3908 26.2975 97.8074 27.3183C97.9241 25.8309 98.7116 24.2268 101.599 23.6435L110.174 21.9518L109.474 18.452L101.103 19.9977C95.2409 21.0769 94.5409 26.0642 94.5409 30.7599C94.5409 36.768 97.4283 40.0929 102.707 40.0929ZM121.075 40.0929C124.196 40.0929 125.946 38.8971 127.463 37.2347L124.867 34.6098C123.788 35.6306 122.767 36.2722 121.28 36.2722C118.859 36.2722 117.313 34.3473 117.313 31.9557C117.313 29.5933 118.888 27.6392 121.105 27.6392C122.855 27.6392 123.788 28.2808 124.75 29.1849L127.346 26.56C125.888 24.9267 124.08 23.8184 121.134 23.8184C116.351 23.8184 112.938 27.4933 112.938 31.9557C112.938 36.4764 116.38 40.0929 121.075 40.0929ZM142.214 24.1101H128.448V27.9016H133.085V39.7429H137.577V27.9016H142.214V24.1101ZM144.269 44.4094H148.702V37.7013C149.752 38.9554 151.21 40.0346 153.573 40.0346C157.277 40.0346 160.689 37.1763 160.689 31.9557C160.689 26.6767 157.218 23.8184 153.573 23.8184C151.268 23.8184 149.781 24.8976 148.702 26.3559V24.1101H144.269V44.4094ZM152.435 36.2722C150.364 36.2722 148.644 34.5514 148.644 31.9557C148.644 29.3016 150.364 27.5808 152.435 27.5808C154.506 27.5808 156.256 29.3016 156.256 31.8973C156.256 34.5806 154.506 36.2722 152.435 36.2722ZM171.256 40.0929C176.126 40.0929 179.743 36.4472 179.743 31.9557C179.743 27.4058 176.155 23.8184 171.314 23.8184C166.443 23.8184 162.827 27.4642 162.827 31.9557C162.827 36.5055 166.414 40.0929 171.256 40.0929ZM171.314 36.2722C168.864 36.2722 167.202 34.2598 167.202 31.9557C167.202 29.5933 168.718 27.6392 171.256 27.6392C173.705 27.6392 175.368 29.6516 175.368 31.9557C175.368 34.3181 173.851 36.2722 171.314 36.2722ZM197.142 24.1101H192.971L186.875 33.239V24.1101H182.588V39.7429H186.759L192.854 30.6432V39.7429H197.142V24.1101ZM189.996 22.6227C192.679 22.6227 194.488 20.9894 194.896 18.1895L192.3 17.7228C191.921 18.9186 191.221 19.6769 189.996 19.6769C188.771 19.6769 188.071 18.9186 187.692 17.7228L185.096 18.1895C185.505 20.9894 187.313 22.6227 189.996 22.6227Z" fill="#BFBFBF"/>
<path fill-rule="evenodd" clip-rule="evenodd" d="M0.999999 0.999882H37.4687V37.9998H0.999999V0.999882Z" fill="#FF1329"/>
<path fill-rule="evenodd" clip-rule="evenodd" d="M19 9.99976H8.99992V29.9998H19V9.99976ZM12.9999 12.6561H10.3437V15.3436H12.9999V12.6561ZM15 12.6561H17.6562V15.3436H15V12.6561ZM12.9999 17.3435H10.3437V19.9999H12.9999V17.3435ZM15 17.3435H17.6562V19.9999H15V17.3435ZM12.9999 22.656H10.3437V25.3435H12.9999V22.656ZM15 22.656H17.6562V25.3435H15V22.656ZM29 18.656H20.3437V29.9998H23V24.6561H26.3437V29.9998H29V18.656ZM29 15.9999H20.3437V17.3435H29V15.9999Z" fill="white"/>
</g>
</svg>
