<svg width="15" height="12" viewBox="0 0 15 12" fill="none" xmlns="http://www.w3.org/2000/svg">
<path fill-rule="evenodd" clip-rule="evenodd" d="M14.0624 -0.000589371H0.937408C0.419872 -0.000589371 -0.00012207 0.413006 -0.00012207 0.922406V11.0764C-0.00012207 11.5866 0.419872 11.9994 0.937408 11.9994H14.0624C14.5807 11.9994 14.9999 11.5866 14.9999 11.0764V0.922406C14.9999 0.413006 14.5807 -0.000589371 14.0624 -0.000589371ZM13.5937 10.6147H1.40613V3.55393L6.89706 8.09059C7.0719 8.23447 7.2861 8.30721 7.49988 8.30721C7.7141 8.30721 7.92798 8.23447 8.10279 8.09059L13.5937 3.55393V10.6147ZM13.5937 1.74621L7.49988 6.78063L1.40613 1.74621V1.38411H13.5937V1.74621Z" fill="#333333"/>
</svg>
