<svg width="19" height="19" viewBox="0 0 19 19" fill="none" xmlns="http://www.w3.org/2000/svg">
<path fill-rule="evenodd" clip-rule="evenodd" d="M18.5343 16.2883L14.4068 12.1607C14.3848 12.1388 14.3591 12.1236 14.3361 12.1031C15.1483 10.8714 15.6223 9.39668 15.6223 7.81079C15.6223 3.49656 12.1252 -0.000656009 7.81113 -0.000656009C3.49721 -0.000656009 -5.80549e-05 3.49656 -5.80549e-05 7.81058C-5.80549e-05 12.1246 3.49711 15.6218 7.81104 15.6218C9.39703 15.6218 10.8717 15.1477 12.1036 14.3357C12.1241 14.3588 12.1393 14.384 12.1613 14.406L16.2888 18.5337C16.9089 19.1539 17.9141 19.1539 18.5343 18.5337C19.1542 17.9137 19.1542 16.9085 18.5343 16.2883ZM7.81113 12.9137C4.99255 12.9137 2.7078 10.6293 2.7078 7.81058C2.7078 4.99189 4.99264 2.70743 7.81113 2.70743C10.6295 2.70743 12.9145 4.99189 12.9145 7.81058C12.9145 10.6293 10.6295 12.9137 7.81113 12.9137Z" fill="#555555"/>
</svg>
