<svg width="52" height="50" viewBox="0 0 52 50" fill="none" xmlns="http://www.w3.org/2000/svg">
<path fill-rule="evenodd" clip-rule="evenodd" d="M41.4524 3.26921V-0.000362992H10.5472V3.26921H-3.50475e-05V5.82042C-3.50475e-05 14.2192 3.30255 19.3921 6.07273 22.2513C8.50253 24.7579 10.9242 25.9667 11.9504 26.4033C13.9179 30.4703 17.7767 33.4679 22.3992 34.2793V43.6223H15.835V49.9997H36.1651V43.6223H29.5999V34.2791C34.2227 33.4679 38.0823 30.4701 40.0495 26.4031C41.0748 25.9667 43.4975 24.7579 45.9266 22.2513C48.6974 19.3921 51.9999 14.2192 51.9999 5.82042V3.26921H41.4524ZM10.5472 19.4556C8.35397 17.4827 5.86308 14.0442 5.27716 8.37115H10.5472V19.4556ZM30.6864 20.7262L26 18.2859L21.3137 20.7262L22.2079 15.5574L18.4172 11.8969L23.6566 11.1434L25.9999 6.4412L28.3422 11.1434L33.5821 11.8969L29.791 15.5574L30.6864 20.7262ZM41.4524 19.4638V8.37115H46.7229C46.1396 14.0562 43.6503 17.4933 41.4524 19.4638Z" fill="#FF1329"/>
</svg>
