<svg width="51" height="49" viewBox="0 0 51 49" fill="none" xmlns="http://www.w3.org/2000/svg">
<path fill-rule="evenodd" clip-rule="evenodd" d="M41.7254 27.7868C38.4804 31.0318 36.7912 32.0866 33.0904 34.3979C30.4266 36.0618 26.7781 38.3402 20.7816 42.506C20.4887 42.7093 20.1512 42.8091 19.8153 42.8091C19.3783 42.8091 18.9441 42.6404 18.6163 42.3123L7.68988 31.3851C7.10985 30.8053 7.02849 29.8933 7.49627 29.2192C11.6609 23.2247 13.9396 19.5746 15.6041 16.91C17.9153 13.2086 18.9698 11.5195 22.2142 8.275C29.3612 1.12727 42.8191 0.106856 48.2737 6.10352e-05C48.2849 -0.000150919 48.2961 -0.000362992 48.3072 -0.000362992C48.7558 -0.000362992 49.1868 0.177399 49.5048 0.495399C49.5051 0.495823 49.5054 0.495982 49.5054 0.495982C49.8309 0.821826 50.01 1.26612 50.001 1.72622C49.8983 7.17684 48.8851 20.6264 41.7254 27.7868ZM36.8528 13.1473C34.6531 10.9478 31.087 10.9482 28.8875 13.1479C26.6875 15.348 26.6871 18.9139 28.8872 21.1138C31.087 23.3135 34.6531 23.3135 36.8528 21.1138C39.0523 18.9143 39.052 15.3474 36.8528 13.1473ZM5.30382 28.284L1.21757 24.1981C1.21757 24.1981 7.15145 16.4944 13.3422 15.9465C11.7313 18.5212 9.52188 22.0045 5.76566 27.4117C5.57375 27.6886 5.42238 27.9822 5.30382 28.284ZM4.52922 36.1898C5.26667 35.2303 6.13565 34.3823 7.13486 33.711L7.58404 34.16C7.32498 34.7142 7.06793 35.2682 6.86202 35.8471C6.53088 36.7786 6.22236 37.7108 5.98063 38.6699C5.47893 40.6575 5.16846 42.6883 4.99319 44.7299C4.98439 44.8343 4.9766 44.9391 4.96849 45.0441C5.81739 44.9798 6.66481 44.8811 7.50454 44.7656C9.50773 44.4888 11.4835 44.0558 13.402 43.4145C14.1202 43.1742 14.8091 42.8735 15.5101 42.5899C15.6265 42.5394 15.7414 42.4865 15.856 42.4328L16.2932 42.8699C14.4847 45.5689 11.3995 47.2774 8.34342 48.1854C6.67249 48.6822 4.89975 48.9854 3.15414 49C2.86699 49.0022 2.58868 49.0006 2.31192 48.911C1.98215 48.8048 1.68466 48.6066 1.45856 48.3437C1.23019 48.0784 1.07813 47.7508 1.02423 47.4045C0.982359 47.1364 1.00096 46.8604 1.00897 46.5901C1.06605 44.6673 1.43254 42.7382 2.04713 40.917C2.61926 39.2207 3.43753 37.611 4.52922 36.1898ZM34.0539 36.6603C33.5062 42.8512 25.8034 48.785 25.8034 48.785L21.7199 44.7014C22.0245 44.582 22.3161 44.4269 22.5898 44.2367C27.9983 40.4796 31.4805 38.2707 34.0539 36.6603Z" fill="#FF1329"/>
</svg>
