<svg width="51" height="50" viewBox="0 0 51 50" fill="none" xmlns="http://www.w3.org/2000/svg">
<path fill-rule="evenodd" clip-rule="evenodd" d="M49.8339 8.76006L43.6952 1.13882C43.1154 0.419026 42.2357 -0.00041604 41.3052 -0.00041604H14.1616C13.2313 -0.00041604 12.3516 0.418814 11.7718 1.13882L5.63301 8.76006C4.99165 9.55601 4.46704 11.0407 4.46704 12.0587V24.643C6.82716 20.7495 11.1223 18.1291 16.035 18.1291C23.4762 18.1291 29.5296 24.1196 29.5296 31.4826C29.5296 35.8387 27.4015 39.7022 24.1306 42.141H47.1795C49.2895 42.141 50.9998 40.4485 50.9998 38.3606V12.0585C50.9999 11.0407 50.4752 9.55601 49.8339 8.76006ZM7.63916 8.69556L9.67199 6.17165H19.722L21.0907 3.94469H11.4658L12.9666 2.08126C13.2583 1.71917 13.6938 1.51136 14.1616 1.51136H41.3054C41.7732 1.51136 42.2087 1.71917 42.5004 2.08126L44.0013 3.94469H34.1368L34.9008 6.17165H45.795L47.8279 8.69556H7.63916ZM16.0354 20.3977C9.84868 20.3977 4.83338 25.3608 4.83338 31.483C4.83338 34.1013 5.75634 36.504 7.29086 38.4009L0.709504 45.5135C-0.29927 46.6043 -0.224156 48.298 0.878092 49.2971C1.39779 49.7668 2.052 49.9995 2.70497 49.9995C3.43731 49.9995 4.16777 49.7067 4.70162 49.1304L11.609 41.6654C12.9671 42.2442 14.4627 42.5678 16.0354 42.5678C22.2221 42.5678 27.2375 37.6049 27.2375 31.483C27.2375 25.3608 22.2221 20.3977 16.0354 20.3977ZM16.0354 38.7824C11.9614 38.7824 8.65879 35.5142 8.65879 31.483C8.65879 27.4513 11.9614 24.1832 16.0354 24.1832C20.1095 24.1832 23.4121 27.4513 23.4121 31.483C23.4121 35.5142 20.1094 38.7824 16.0354 38.7824Z" fill="#FF1329"/>
</svg>
