<svg width="16" height="11" viewBox="0 0 16 11" fill="none" xmlns="http://www.w3.org/2000/svg">
<path d="M10.3053 1.73687L10.3055 1.73709L13.7968 4.92451L14.7489 5.79377H13.4596H0.74372C0.565187 5.79377 0.4998 5.9159 0.4998 5.97289C0.4998 6.0299 0.565193 6.15202 0.74372 6.15202H13.4596H14.7488L13.7968 7.02126L10.3057 10.2089L10.3055 10.209C10.2627 10.2481 10.2506 10.2884 10.2506 10.3199C10.2506 10.3514 10.2627 10.3917 10.3054 10.4306L10.3055 10.4306C10.3508 10.4719 10.4178 10.4989 10.4946 10.4989C10.5712 10.4989 10.6381 10.4721 10.6836 10.4308C10.6837 10.4307 10.6838 10.4306 10.6839 10.4305L15.4447 6.08378L15.4449 6.08368C15.4877 6.04457 15.4998 6.00428 15.4998 5.97294C15.4998 5.94162 15.4877 5.90115 15.4448 5.8618L10.3053 1.73687ZM10.3053 1.73687C10.2627 1.69806 10.2505 1.65777 10.2505 1.62607C10.2505 1.59434 10.2627 1.5538 10.3056 1.51471L9.96849 1.14558L10.3053 1.51492C10.4049 1.42415 10.5837 1.42409 10.6834 1.51473C10.6834 1.5148 10.6835 1.51486 10.6836 1.51492L15.4446 5.86165L10.3053 1.73687Z" fill="black" fill-opacity="0.01" stroke="#FE3745"/>
</svg>
