<svg width="15" height="15" viewBox="0 0 15 15" fill="none" xmlns="http://www.w3.org/2000/svg">
<path fill-rule="evenodd" clip-rule="evenodd" d="M7.49993 14.9994C3.36164 14.9994 -7.4029e-05 11.6376 -7.4029e-05 7.49954C-7.4029e-05 3.36126 3.36164 -0.000506043 7.49993 -0.000506043C11.6382 -0.000506043 14.9999 3.36126 14.9999 7.49954C14.9999 11.6376 11.6382 14.9994 7.49993 14.9994ZM7.49993 1.179C4.01045 1.179 1.17952 4.00993 1.17952 7.49954C1.17952 10.9889 4.02021 13.8197 7.49993 13.8197C10.9796 13.8197 13.8203 10.9793 13.8203 7.49954C13.8203 4.01954 10.9894 1.179 7.49993 1.179ZM9.43639 10.8415C9.30863 10.8415 9.18079 10.7923 9.07274 10.7136L6.54647 8.74776C6.40886 8.63975 6.32041 8.47263 6.32041 8.28587V3.96043C6.32041 3.63639 6.58577 3.37088 6.91013 3.37088C7.23449 3.37088 7.49993 3.63639 7.49993 3.96043V8.00051L9.79029 9.7898C10.0556 9.98618 10.0949 10.3597 9.89834 10.6154C9.79029 10.7629 9.61329 10.8415 9.43639 10.8415Z" fill="#333333"/>
</svg>
